PathFileType	4	(X/Y/Z)	..\data\2014001\dynamic\2014001_C5_01.trc
DataRate	CameraRate	NumFrames	NumMarkers	Units	OrigDataRate	OrigDataStartFrame	OrigNumFrames
100.000000	100.000000	4	52	mm	100.000000	93	125
Frame#	Time	L_IAS			L_IPS			R_IPS			R_IAS			L_FTC			L_FLE			L_FME			L_FAX			L_TTC			L_FAL			L_TAM			L_FCC			L_FM1			L_FM2			L_FM5			R_FTC			R_FLE			R_FME			R_FAX			R_TTC			R_FAL			R_TAM			R_FCC			R_FM1			R_FM2			R_FM5			CV7			TV10			SXS			SJN			L_SIA			L_SRS			L_SAA			L_SAE			L_HLE			L_HME			L_UOA			L_RSP			L_UHE			L_HM2			L_HM5			R_SIA			R_SRS			R_SAA			R_SAE			R_HLE			R_HME			R_UOA			R_RSP			R_UHE			R_HM2			R_HM5			
		X1	Y1	Z1	X2	Y2	Z2	X3	Y3	Z3	X4	Y4	Z4	X5	Y5	Z5	X6	Y6	Z6	X7	Y7	Z7	X8	Y8	Z8	X9	Y9	Z9	X10	Y10	Z10	X11	Y11	Z11	X12	Y12	Z12	X13	Y13	Z13	X14	Y14	Z14	X15	Y15	Z15	X16	Y16	Z16	X17	Y17	Z17	X18	Y18	Z18	X19	Y19	Z19	X20	Y20	Z20	X21	Y21	Z21	X22	Y22	Z22	X23	Y23	Z23	X24	Y24	Z24	X25	Y25	Z25	X26	Y26	Z26	X27	Y27	Z27	X28	Y28	Z28	X29	Y29	Z29	X30	Y30	Z30	X31	Y31	Z31	X32	Y32	Z32	X33	Y33	Z33	X34	Y34	Z34	X35	Y35	Z35	X36	Y36	Z36	X37	Y37	Z37	X38	Y38	Z38	X39	Y39	Z39	X40	Y40	Z40	X41	Y41	Z41	X42	Y42	Z42	X43	Y43	Z43	X44	Y44	Z44	X45	Y45	Z45	X46	Y46	Z46	X47	Y47	Z47	X48	Y48	Z48	X49	Y49	Z49	X50	Y50	Z50	X51	Y51	Z51	X52	Y52	Z52	

94	0.93	1666.65478515625	856.9494628906252	-341.7727661132813	1478.809814453125	891.0322265625002	-281.4000854492188	1472.538940429688	881.9951171875002	-193.0661315917969	1638.744384765625	834.3330078125002	-106.5533294677735	1603.846435546875	773.9282836914065	-410.0907287597657	1733.641723632813	438.1268615722657	-359.6923217773438	1745.187255859375	440.0388488769532	-243.846176147461	1721.096069335938	375.1203002929688	-363.2631225585938	1778.523193359375	360.2777099609376	-309.2751159667969	1673.566284179688	60.5765953063965	-314.3796081542969	1695.243530273438	68.71680450439455	-224.4943847656251	1625.060302734375	20.95198059082032	-269.7236938476563	1808.688598632813	23.97048950195313	-241.4514160156251	1816.078491210938	32.35059356689454	-303.3052673339844	1763.25830078125	19.80305290222168	-347.9280090332032	1528.714233398438	742.6729736328126	-61.80823898315431	1510.531616210938	402.5703735351564	-60.15016174316408	1545.0673828125	369.5243530273438	-175.9613037109375	1459.898681640625	369.8642578125001	-57.14337158203126	1505.70849609375	313.7682189941407	-93.94436645507814	1185.072021484375	234.0629425048829	-124.4844360351563	1229.409301757813	192.9602355957032	-198.6454620361329	1146.267211914063	246.4773101806641	-191.8629455566407	1195.929077148438	71.68796539306642	-167.4499053955078	1191.380004882813	83.40340423583986	-106.7502670288086	1156.519409179688	133.5950622558594	-82.24722290039064	1465.011474609375	1341.281127929688	-232.284408569336	1437.496459960938	1098.396728515625	-234.2099304199219	1675.632934570313	1148.902587890625	-232.0286865234376	1608.766967773438	1303.034057617188	-232.3443908691407	1435.71484375	1143.349731445313	-328.6210021972657	1436.49267578125	1278.65087890625	-323.6059875488282	1518.621704101563	1287.17578125	-426.1637268066407	1556.176391601563	1301.124145507813	-414.5225830078126	1488.483154296875	1037.3544921875	-510.8956604003907	1448.763427734375	1006.592163085938	-439.9236450195314	1448.279541015625	1018.408386230469	-488.058807373047	1482.354614257813	791.2436523437502	-523.4271240234376	1439.060180664063	818.6650390625002	-586.2365722656251	1474.881469726563	706.5933227539064	-545.2178955078126	1403.35986328125	752.3389282226564	-604.6188354492189	1431.207763671875	1143.034057617188	-117.4538192749024	1432.22509765625	1271.109497070313	-141.5529479980469	1509.5712890625	1287.487670898438	-38.68959045410157	1557.515258789063	1300.697631835938	-53.87725067138673	1597.696044921875	1006.546020507813	46.36065292358399	1560.524658203125	971.8538208007815	-20.21038436889649	1578.53515625	963.1705322265627	25.07637405395509	1786.588256835938	938.2803344726565	-76.18043518066408	1788.443603515625	896.9744262695315	-6.500548839569094	1871.172973632813	926.3457031250002	-95.83133697509767	1848.24365234375	848.069519042969	-34.09132385253907	
95	0.9400000000000001	1688.113403320313	860.2403564453127	-343.4674987792969	1500.558837890625	895.491638183594	-283.0904541015626	1493.973266601563	885.9317626953127	-194.7309722900391	1660.11181640625	838.0982666015627	-107.8687896728516	1624.810180664063	777.5783691406252	-411.2762756347657	1742.8916015625	436.962371826172	-359.8535766601563	1753.783203125	438.5105285644532	-243.8429260253907	1728.375366210938	374.3208618164063	-363.3972167968751	1785.281860351563	358.1662902832032	-309.4628601074219	1673.98583984375	60.98582077026369	-314.1149597167969	1695.586303710938	69.01159667968751	-224.2501678466797	1625.39794921875	21.49062156677246	-269.8623352050782	1808.4228515625	23.87946891784668	-240.8918762207032	1816.176513671875	32.85889053344727	-302.9278564453126	1763.37548828125	20.82197570800782	-348.2166137695313	1551.67236328125	744.6993408203126	-64.06809234619142	1552.426513671875	403.7752990722657	-60.34046173095705	1587.401245117188	372.4264526367188	-176.5109405517578	1503.107177734375	370.6676330566407	-57.41256332397462	1549.859741210938	315.3483581542969	-94.86290740966798	1229.8486328125	230.638412475586	-124.5951766967774	1274.13427734375	190.7088165283203	-199.1585235595704	1188.6328125	240.3042907714844	-191.5381774902344	1249.175903320313	70.09105682373048	-164.3988800048828	1244.966674804688	83.1568069458008	-103.9242477416992	1208.058837890625	131.6187591552735	-80.19615173339845	1487.04638671875	1345.463500976563	-232.7536315917969	1459.34326171875	1102.609497070313	-235.2876739501954	1697.06689453125	1152.41455078125	-231.4197692871094	1630.636962890625	1306.746215820313	-231.7942047119141	1458.116333007813	1147.682983398438	-330.1868896484376	1458.974243164063	1283.123901367188	-324.7443847656251	1542.608276367188	1290.657348632813	-426.8506774902345	1579.982666015625	1304.912353515625	-414.3089904785157	1519.283325195313	1038.945556640625	-510.9463806152345	1478.61474609375	1007.554565429688	-440.6046447753907	1479.006713867188	1018.4384765625	-489.013885498047	1522.981689453125	792.1353149414065	-519.3405761718751	1480.535278320313	816.6697998046877	-583.8915405273439	1519.83544921875	707.1696166992189	-540.1040649414064	1448.020141601563	748.7793579101564	-602.3564453125001	1451.43994140625	1147.10107421875	-119.1466751098633	1453.398071289063	1275.295166015625	-142.6375122070313	1529.720825195313	1290.73388671875	-39.03641510009766	1577.879516601563	1303.723022460938	-53.29249191284181	1610.758666992188	1007.362243652344	44.83750915527344	1573.220825195313	974.4177246093752	-22.38820838928223	1590.0654296875	965.3545532226565	23.19707679748536	1797.974731445313	926.3745117187502	-72.39065551757814	1795.623291015625	886.0037231445315	-2.078772306442261	1882.019409179688	908.5146484375002	-89.72975921630861	1852.507446289063	833.1328125000002	-27.35962295532227	
96	0.9500000000000001	1709.563110351563	863.5586547851565	-344.8964233398438	1522.490478515625	900.2176513671877	-285.0304870605469	1515.440795898438	890.3830566406252	-196.6475372314454	1681.361938476563	842.4971923828127	-109.0183181762696	1645.870727539063	781.1973876953127	-412.3608703613282	1750.532958984375	435.8660888671876	-360.0742187500001	1760.62158203125	436.9761047363282	-243.8932800292969	1733.999877929688	373.5452270507813	-363.5534057617188	1790.470092773438	356.2385864257813	-309.7341308593751	1674.194946289063	61.29883956909181	-313.8774108886719	1695.75341796875	69.42855834960939	-224.1131591796876	1625.755493164063	21.86780548095703	-269.9545288085938	1808.081665039063	24.3649082183838	-240.5875396728516	1815.988037109375	33.8136329650879	-302.7319946289063	1763.407592773438	21.96298599243164	-348.4753112792969	1574.201416015625	747.6528930664064	-66.25866699218751	1593.914672851563	406.5255432128907	-60.85552215576173	1629.399780273438	376.9875488281251	-177.2341766357422	1546.014404296875	372.4597778320313	-58.05431365966798	1594.268798828125	318.3215026855469	-96.00703430175784	1276.726440429688	224.2804260253907	-124.6401672363282	1321.385375976563	186.3506164550782	-199.5679016113282	1233.130249023438	230.5764312744141	-191.0608978271485	1306.707275390625	66.80588531494142	-161.9398498535157	1302.763916015625	81.01330566406251	-101.7658615112305	1263.156616210938	126.5563888549805	-78.42706298828126	1508.912109375	1349.86328125	-233.0183868408204	1481.011474609375	1107.121948242188	-236.283187866211	1718.266845703125	1156.255493164063	-230.7542266845704	1652.291015625	1310.748657226563	-231.1187591552735	1480.297485351563	1152.456787109375	-331.6024780273438	1481.2177734375	1287.89697265625	-325.6659240722657	1566.307495117188	1294.618896484375	-427.2819824218751	1603.464111328125	1309.149047851563	-413.8726806640626	1550.1787109375	1041.194946289063	-510.8169860839845	1508.63525390625	1009.019104003906	-441.1566772460939	1509.90185546875	1018.958190917969	-489.8442382812501	1564.427001953125	794.0654907226565	-514.7673950195314	1522.840698242188	815.5764770507815	-580.9400634765626	1566.008911132813	709.0744018554689	-534.4486694335939	1493.815307617188	746.1567993164064	-599.2759399414064	1471.562377929688	1151.500122070313	-120.6896667480469	1474.410766601563	1279.720458984375	-143.578857421875	1549.65576171875	1294.23095703125	-39.34136199951173	1597.977905273438	1307.032958984375	-52.62611389160158	1623.888916015625	1008.654174804688	43.02159500122071	1586.147216796875	977.5482177734377	-24.9547348022461	1601.678588867188	968.1343383789065	20.92610931396485	1808.445434570313	914.272155761719	-68.07879638671876	1801.4853515625	875.235046386719	2.764967203140259	1891.36669921875	890.1542968750002	-82.70952606201173	1854.949584960938	818.389831542969	-19.93938827514649	
97	0.96	1731.05517578125	866.801696777344	-346.0700378417969	1544.64453125	905.0628662109377	-287.1707458496094	1537.010864257813	895.1884765625002	-198.7434539794922	1702.622436523438	847.395446777344	-110.0252227783203	1667.045288085938	784.659118652344	-413.3480224609376	1756.75537109375	434.9063720703126	-360.3945007324219	1765.93115234375	435.5254821777345	-244.0610504150391	1738.203735351563	372.8600463867188	-363.7811889648438	1794.30126953125	354.5482788085938	-310.1068115234376	1674.260375976563	61.49120712280275	-313.6921386718751	1695.796020507813	69.90625762939455	-224.0889892578126	1626.100463867188	22.11406707763672	-270.0228881835938	1807.716430664063	25.17115211486817	-240.4947967529297	1815.605712890625	34.93968200683594	-302.6799316406251	1763.376220703125	23.03263473510743	-348.6887817382813	1596.415283203125	751.4181518554689	-68.30310821533205	1634.705688476563	410.6592407226564	-61.65926742553712	1670.78515625	382.9959411621094	-178.0594482421875	1588.3330078125	375.0732421875001	-59.0118980407715	1638.602172851563	322.5755004882813	-97.28453063964847	1325.66748046875	215.1336059570313	-124.6177215576172	1371.120971679688	179.9631500244141	-199.8203735351563	1279.944458007813	217.5341186523438	-190.481430053711	1367.992553710938	62.06953048706056	-160.0079956054688	1364.145141601563	77.15136718750001	-100.2199630737305	1321.368774414063	118.7313003540039	-76.94158935546876	1530.6298828125	1354.3251953125	-233.1164093017579	1502.559936523438	1111.784790039063	-237.2438964843751	1739.302856445313	1160.325073242188	-230.065658569336	1673.763305664063	1314.930053710938	-230.3583374023438	1502.333984375	1157.504272460938	-332.9340515136719	1503.242919921875	1292.797119140625	-326.4026794433594	1589.718139648438	1298.957885742188	-427.4752807617189	1626.618041992188	1313.7236328125	-413.2463378906251	1581.0986328125	1044.0419921875	-510.5542297363282	1538.764404296875	1010.950012207031	-441.6204833984376	1540.901733398438	1019.936401367188	-490.5941162109376	1606.537719726563	797.0881347656252	-509.7153320312501	1565.834228515625	815.438171386719	-577.3883056640626	1613.212768554688	712.4030761718751	-528.2169799804689	1540.610107421875	744.5493164062501	-595.3449707031251	1491.643798828125	1156.089233398438	-122.1126251220703	1495.306640625	1284.22509765625	-144.4171752929688	1569.406616210938	1297.872436523438	-39.64102172851563	1617.845092773438	1310.526611328125	-51.9198684692383	1637.145385742188	1010.36279296875	40.93253707885743	1599.39697265625	981.1465454101565	-27.88657188415528	1613.454833984375	971.4295043945315	18.27741432189942	1817.950927734375	902.160339355469	-63.2239112854004	1806.03369140625	864.8931274414065	7.992240905761721	1899.07958984375	871.5350341796877	-74.77800750732423	1855.555297851563	804.1582031250002	-11.91358947753906	
